PathFileType  4	(X/Y/Z) C:\Users\antoi\Documents\MyRepositories\mobilecap\ResultsAnalysis
DataRate	CameraRate	NumFrames	NumMarkers	Units	OrigDataRate	OrigDataStartFrame	OrigNumFrames
100.0	100.0	6	51	mm	100.0	49	129
Frame#	Time	r_knee			r_shank_antsup			r_ankle			r_calc			r_5meta			r_toe			L_knee			L_shank_antsup			L_ankle			L_calc			L_5meta			L_toe			r_sh2			r_sh3			r_sh4			L_sh2			L_sh3			r_thigh1			r_thigh2			r_thigh3			r_thigh4			r_thigh5			L_thigh1			L_thigh2			L_thigh3			L_thigh4			r.ASIS			r.PSIS			L.ASIS			L.PSIS			C7			R_Shoulder			L_Shoulder			R_Sternum			L_Sternum			R_humerus			R_elbow_med			R_elbow_lat			R_forearm			R_wrist_radius			R_wrist_ulna			L_humerus			L_elbow_med			L_elbow_lat			L_forearm			L_wrist_radius			L_wrist_ulna			R_HJC			L_HJC			R_HJC_reg			L_HJC_reg			
		X1	Y1	Z1	X2	Y2	Z2	X3	Y3	Z3	X4	Y4	Z4	X5	Y5	Z5	X6	Y6	Z6	X7	Y7	Z7	X8	Y8	Z8	X9	Y9	Z9	X10	Y10	Z10	X11	Y11	Z11	X12	Y12	Z12	X13	Y13	Z13	X14	Y14	Z14	X15	Y15	Z15	X16	Y16	Z16	X17	Y17	Z17	X18	Y18	Z18	X19	Y19	Z19	X20	Y20	Z20	X21	Y21	Z21	X22	Y22	Z22	X23	Y23	Z23	X24	Y24	Z24	X25	Y25	Z25	X26	Y26	Z26	X27	Y27	Z27	X28	Y28	Z28	X29	Y29	Z29	X30	Y30	Z30	X31	Y31	Z31	X32	Y32	Z32	X33	Y33	Z33	X34	Y34	Z34	X35	Y35	Z35	X36	Y36	Z36	X37	Y37	Z37	X38	Y38	Z38	X39	Y39	Z39	X40	Y40	Z40	X41	Y41	Z41	X42	Y42	Z42	X43	Y43	Z43	X44	Y44	Z44	X45	Y45	Z45	X46	Y46	Z46	X47	Y47	Z47	X48	Y48	Z48	X49	Y49	Z49	X50	Y50	Z50	X51	Y51	Z51	

49	0.48000000	384.44507	476.94573	-106.80926	401.04718	407.25870	-113.46319	267.07678	101.18465	-147.60363	208.56793	77.62567	-189.33238	367.99764	41.75655	-119.80313	413.36405	54.15930	-172.82576	698.28438	482.79226	-347.93953	760.10498	421.73372	-328.55862	798.57086	112.51807	-339.26673	754.71577	53.74124	-302.07486	916.48592	101.28847	-352.24642	948.84226	139.82726	-294.94800	359.89996	302.82092	-110.80286	333.54397	433.43249	-87.93773	281.87467	329.03463	-92.22408	686.74474	414.83645	-381.59437	718.80201	296.19344	-389.55497	497.15183	702.61757	-48.80890	472.34307	594.41874	-74.11587	403.86990	587.76101	-73.70800	385.35755	725.60971	-54.49666	357.96281	619.04714	-94.15955	613.68777	745.21629	-397.77023	676.68312	623.81117	-370.65878	516.84506	692.54907	-412.29278	574.84568	575.47671	-365.86004	579.45109	908.58578	-107.32893	370.18163	934.94953	-196.33812	588.26991	909.82309	-329.21430	376.57672	928.04210	-277.66874	466.20703	1378.77513	-203.59443	524.73559	1345.57761	-67.27616	496.74485	1351.10638	-345.16209	591.32060	1311.53310	-189.98753	586.81110	1312.79916	-230.33916	573.72732	1240.19485	-18.84937	540.66167	1018.34019	-10.04966	587.52303	1039.14356	32.63879	674.38371	1001.44537	14.39218	766.10337	895.94540	-23.82792	751.34491	880.00945	8.17687	482.48030	1252.56917	-420.32628	418.79900	1034.26632	-404.22774	433.50120	1057.20639	-464.40045	490.03378	971.07956	-498.34117	527.62085	848.15582	-506.97284	493.83858	843.24326	-527.09247	497.70248	819.93341	-119.50409	510.44011	820.87659	-326.61561	505.60999	848.62572	-138.16240	517.05637	836.26083	-283.75048	
50	0.49000000	394.34576	476.32301	-107.18189	409.84968	406.16250	-113.97224	268.56068	103.20154	-147.61825	209.62431	80.36958	-189.39771	368.29316	41.81808	-119.83963	413.82166	53.47165	-172.83503	706.02492	479.48594	-347.14522	768.48679	420.15858	-328.23947	814.79390	111.47086	-337.14638	772.69142	51.72149	-299.40321	932.59270	103.49822	-352.17822	964.86030	142.85239	-295.33688	366.39000	302.66612	-111.12038	342.98848	433.81771	-88.26674	289.01517	330.56101	-92.24994	694.84283	411.20723	-380.52106	729.64268	293.21117	-388.05510	508.26603	701.49536	-49.74203	482.83646	593.40460	-74.59919	414.31524	587.03623	-74.23624	396.38334	725.15345	-55.42771	368.61001	618.45770	-94.87030	625.61320	742.90025	-397.91533	686.42954	620.69108	-369.51635	528.15599	691.41326	-413.06181	584.02318	573.77549	-365.92950	591.52602	907.08096	-107.90225	382.48804	933.73131	-197.97401	601.07638	907.99358	-329.85931	389.26157	926.92998	-279.34574	477.95447	1377.42536	-204.83702	536.70186	1344.41415	-68.51885	508.25711	1349.50916	-346.43837	603.27585	1310.18262	-191.24483	598.71092	1311.46835	-231.64063	586.20070	1239.19734	-20.35468	553.91443	1017.41876	-10.72373	601.12792	1038.33781	31.17683	688.00894	1001.10810	12.29974	780.05482	896.26959	-26.78529	765.90093	880.23418	5.40955	493.85588	1250.82669	-421.38101	430.43767	1032.38125	-404.79331	444.92680	1055.32630	-465.04930	501.08471	969.10855	-499.22934	538.33458	846.11289	-508.01671	504.50448	841.23949	-527.94475	509.46162	818.59545	-120.44705	523.08546	819.27232	-327.50008	517.61190	846.87270	-139.19008	529.73123	834.70124	-284.80486	
51	0.50000000	404.85634	475.68374	-107.46485	419.26752	404.99795	-114.39546	270.30897	105.49498	-147.44455	210.89573	83.60993	-189.29430	368.68733	41.89459	-119.81196	414.35810	52.84658	-172.81275	714.03522	476.51501	-346.47127	776.74039	418.10023	-327.90289	827.66754	109.85458	-334.93150	786.75917	49.65214	-296.50834	945.26283	103.89795	-351.89324	977.72303	143.75887	-295.45705	373.42186	302.55934	-111.32953	353.16078	434.21088	-88.43005	296.77035	332.21722	-92.07652	702.85574	407.78689	-379.52569	739.19127	290.19118	-386.54147	519.68775	700.51990	-50.64107	493.79362	592.47686	-74.98829	425.24587	586.32629	-74.67521	407.79643	724.66185	-56.36275	379.73720	617.82783	-95.49125	637.46733	740.76867	-398.31019	696.35603	617.88646	-368.71244	539.38329	690.39007	-413.56286	593.35709	572.26645	-365.81197	603.79093	905.77165	-108.45481	394.97911	932.76445	-199.75118	614.04234	906.25210	-330.44269	402.15725	926.14432	-281.15708	489.85821	1376.22055	-206.24608	548.74333	1343.41234	-69.89481	520.01275	1348.07087	-347.86192	615.34068	1309.01652	-192.60061	610.77427	1310.29569	-233.03524	598.64052	1238.31628	-21.95075	566.84355	1016.65787	-11.51219	614.48290	1037.64835	29.59777	701.26018	1000.74264	10.21968	793.53104	896.42596	-29.56428	779.91507	880.31603	2.80280	505.47810	1249.23043	-422.57967	442.28488	1030.69106	-405.41345	456.56047	1053.57551	-465.75073	512.34402	967.25403	-500.13613	549.27047	844.17273	-509.00673	515.36063	839.32750	-528.74618	521.28298	817.49826	-121.39747	535.88928	817.82563	-328.38249	529.77103	845.19202	-140.27244	542.60964	833.34920	-285.89199	
52	0.51000000	415.90731	475.07190	-107.66157	429.24163	403.80710	-114.69392	272.38069	108.07122	-147.07537	212.44087	87.39174	-189.03389	369.18519	41.98697	-119.71394	414.98511	52.30786	-172.74830	722.36156	473.83622	-345.90330	784.93697	415.52441	-327.51104	837.39700	107.62233	-332.73366	797.11289	47.46951	-293.65280	954.80404	102.44944	-351.29056	987.68309	142.45034	-295.13705	380.93569	302.53255	-111.40528	363.99453	434.64621	-88.43284	305.09173	334.04080	-91.72007	710.81435	404.56448	-378.58503	747.51187	287.09568	-385.02311	531.41441	699.71000	-51.49525	505.20223	591.66067	-75.28907	436.64185	585.66687	-75.03868	419.57938	724.17751	-57.30935	391.31302	617.18613	-96.04390	649.28817	738.82219	-398.90316	706.52894	615.38539	-368.30538	550.58888	689.47788	-413.84538	602.93420	570.96269	-365.58755	616.24342	904.67205	-109.00430	407.66781	932.00600	-201.58336	627.14567	904.70391	-330.99471	415.23033	925.63413	-283.00798	501.92046	1375.17536	-207.82580	560.87291	1342.59292	-71.40931	532.02512	1346.81122	-349.43441	627.53060	1308.04443	-194.05615	623.00238	1309.30000	-234.52227	611.05132	1237.57236	-23.61907	579.43300	1016.03337	-12.51056	627.52842	1037.07820	27.93057	714.10671	1000.35578	8.18019	806.48236	896.40758	-32.14545	793.32029	880.25976	0.36350	517.36123	1247.80178	-423.92291	454.36181	1029.22003	-406.08430	468.41852	1051.97722	-466.51530	523.82733	965.54589	-501.05744	560.44012	842.36120	-509.93034	526.41902	837.54025	-529.50200	533.24735	816.61978	-122.36412	548.85740	816.59444	-329.27639	542.13572	843.63647	-141.37657	555.65921	832.24094	-286.99169	
53	0.52000000	427.45028	474.51175	-107.76385	439.72427	402.62199	-114.82298	274.82988	110.93096	-146.51006	214.33093	91.74307	-188.64051	369.78830	42.09032	-119.54407	415.69952	51.84589	-172.63152	730.98830	471.37639	-345.42665	793.09724	412.47723	-327.05589	844.45321	104.85005	-330.63390	804.20575	45.28691	-291.09456	961.73991	99.33687	-350.30584	995.20084	139.08414	-294.26201	388.86877	302.60868	-111.32622	375.42526	435.14724	-88.27859	313.93014	336.05675	-91.20625	718.70483	401.52298	-377.68715	754.73556	283.92452	-383.50983	543.46341	699.07391	-52.30844	517.06626	590.97014	-75.51233	448.49395	585.07458	-75.33576	431.71716	723.72746	-58.26534	403.31848	616.54831	-96.54234	661.11124	737.03515	-399.65377	716.97044	613.13914	-368.31703	561.83346	688.66260	-413.97813	612.78985	569.86182	-365.33622	628.89120	903.78792	-109.57762	420.55946	931.41345	-203.38280	640.37423	903.42937	-331.55914	428.44784	925.33569	-284.80660	514.13989	1374.29974	-209.57712	573.09838	1341.96638	-73.06581	544.29411	1345.74565	-351.15636	639.85951	1307.27382	-195.61410	635.38970	1308.49912	-236.10427	623.43386	1236.97388	-25.34432	591.67799	1015.51620	-13.79204	640.18888	1036.61535	26.21502	726.52045	999.94659	6.21329	818.89157	896.21441	-34.50729	806.07375	880.05901	-1.89503	529.51584	1246.55754	-425.41073	466.67677	1027.97898	-406.81269	480.51407	1050.55290	-467.36049	535.55493	964.00346	-501.98898	571.85528	840.69760	-510.77211	537.70724	835.90124	-530.21049	545.43788	815.93372	-123.35377	561.99084	815.61602	-330.19474	554.74795	842.25922	-142.47830	568.85522	831.39027	-288.09288	
54	0.53000000	439.47501	474.00574	-107.74504	450.68155	401.46639	-114.73095	277.70508	114.07343	-145.75023	216.65384	96.67978	-188.14561	370.49577	42.19355	-119.30510	416.49323	51.42314	-172.45038	739.83578	469.05848	-345.03030	801.20969	409.09787	-326.55148	849.53076	101.71220	-328.69263	808.71799	43.33789	-289.02325	966.76096	94.90476	-348.93518	1000.90253	134.03117	-292.81644	397.16717	302.80984	-111.07097	387.39670	435.73026	-87.96764	323.23993	338.28417	-90.56979	726.50650	398.65546	-376.83658	761.09936	280.72386	-382.01946	555.86265	698.61394	-53.09070	529.40375	590.41050	-75.66466	460.80711	584.54843	-75.56633	444.20143	723.32196	-59.22645	415.75403	615.91995	-96.99034	672.96334	735.36679	-400.54953	727.64547	611.07213	-368.73530	573.15459	687.92942	-414.03630	622.89142	568.93566	-365.10609	641.75300	903.12236	-110.20932	433.65021	930.95919	-205.07455	653.72569	902.47375	-332.18710	441.78280	925.18807	-286.47994	526.51136	1373.60313	-211.49685	585.42052	1341.53630	-74.86415	556.80829	1344.88498	-353.02697	652.33537	1306.71436	-197.27812	647.92679	1307.91076	-237.78631	635.77864	1236.51821	-27.11637	603.58106	1015.08999	-15.38208	652.39431	1036.24108	24.48915	738.48122	999.50963	4.34839	830.76432	895.84890	-36.62880	818.16117	879.70307	-3.95501	541.94878	1245.50925	-427.04189	479.21781	1026.97024	-407.62130	492.85686	1049.31932	-468.30509	547.54739	962.63544	-502.92890	583.52591	839.19334	-511.51833	549.25941	834.42382	-530.86720	557.92667	815.42123	-124.36967	575.28335	814.90443	-331.14760	567.63518	841.11386	-143.56762	582.18422	830.79069	-289.19510	
